<svg aria-hidden="true" style="width:0;height:0;position:absolute;overflow:hidden" xmlns="http://www.w3.org/2000/svg"><defs><symbol id="telegram" viewBox="0 0 32 32"><path d="M24.07.002a2.973 2.973 0 0 0-.933.223h-.004c-.286.113-1.641.683-3.7 1.547l-7.382 3.11C6.754 7.111 1.547 9.306 1.547 9.306l.062-.024s-.36.118-.734.375a2.03 2.03 0 0 0-.586.567c-.184.27-.332.683-.278 1.11.09.722.56 1.155.895 1.394.34.242.664.355.664.355h.008L6.46 14.73c.218.703 1.488 4.875 1.793 5.836.18.574.355.933.574 1.207.105.14.23.258.379.351a1.12 1.12 0 0 0 .246.106l-.05-.012c.015.004.026.016.038.02.04.011.067.015.117.023.774.234 1.395-.246 1.395-.246l.035-.027 2.883-2.625 4.832 3.707.11.047c1.007.44 2.027.195 2.566-.239.543-.437.754-.996.754-.996l.035-.09 3.734-19.129c.106-.472.133-.914.016-1.343a1.806 1.806 0 0 0-.781-1.047 1.872 1.872 0 0 0-1.067-.27Zm-.102 2.051c-.003.062.008.055-.019.176v.011l-3.7 18.93c-.015.027-.042.086-.116.145-.078.062-.141.101-.465-.028l-5.91-4.53-3.57 3.253.75-4.79 9.655-9c.399-.37.266-.448.266-.448.027-.453-.601-.133-.601-.133L8.082 13.182l-.004-.02-5.836-1.965v-.003l-.016-.004c.004 0 .032-.012.032-.012l.03-.016.032-.011s5.211-2.196 10.508-4.426c2.652-1.117 5.324-2.242 7.379-3.11 2.055-.863 3.574-1.496 3.66-1.53.082-.032.043-.032.101-.032Z" fill="#EAEAEA"/></symbol><symbol id="twitter" viewBox="0 0 32 32"><path d="m3.789 3.84 9.383 13.68-9.185 10.64h2.035l8.05-9.33 6.4 9.33h7.688l-9.804-14.291L27.007 3.84H24.98l-7.523 8.715-5.979-8.715H3.79Zm2.43 1.28h4.585L25.73 26.88h-4.585L6.219 5.12Z" fill="#fff"/></symbol><symbol id="whitepaper" viewBox="0 0 32 32"><g clip-path="url('#clip0_72_2806')"><path d="M27.723 4.033 24.004.296c-.511-.52-1.537-.338-2.273.399l-3.39 3.378H6.697v4.71H1.984V30h16.502v-4.713H23.2V10.403L27.316 6.3c.737-.733.922-1.754.407-2.267ZM14.56 17.57 9.42 19.652l-1.104-1.11 2.1-5.13 4.145 4.158ZM7.624 4.998h9.788l-3.798 3.786h-5.99V4.998ZM2.91 29.072V9.71h9.773l-2.987 2.978-3.192 7.796c-.367.894.07 1.332.96.974l7.814-3.166 2.28-2.271V29.07H2.91v.002Zm19.363-4.713h-3.787V15.1l3.787-3.773v13.032Z" fill="#fff"/></g><defs><clipPath id="clip0_72_2806"><path fill="#fff" d="M0 0h30v30H0z"/></clipPath></defs></symbol><symbol id="mail" viewBox="0 0 32 32"><path d="M0 4.25v21.5h30V4.25H0Zm18.313 11.032-2.723 2.736a.866.866 0 0 1-1.166.013l-2.737-2.749.024-.024L1.823 5.25h26.36l-9.895 10.009.024.023Zm-8.051-.015L1 24.177V5.962l9.262 9.305Zm.705.708 2.761 2.775c.355.33.81.496 1.267.496.462 0 .925-.17 1.29-.51l2.748-2.761 9.119 8.775H1.843l9.124-8.775Zm8.771-.708L29 5.961v18.216l-9.262-8.91Z" fill="#fff"/></symbol></defs></svg>